<svg width="35" height="34" viewBox="0 0 35 34" fill="none" xmlns="http://www.w3.org/2000/svg">
<path d="M30.1613 -1.27651e-06L5.1299 -1.82359e-07C2.82884 -8.17767e-08 0.958008 1.86697 0.958008 4.16146L0.958009 29.1302C0.958009 31.4255 2.82884 33.2917 5.1299 33.2917L17.6456 33.2917L17.6456 21.8477L13.4737 21.8477L13.4737 16.6458L17.6456 16.6458L17.6456 12.4844C17.6456 9.03655 20.4469 6.24219 23.9034 6.24219L28.0753 6.24219L28.0753 11.444L25.9894 11.444C24.838 11.444 23.9034 11.3359 23.9034 12.4844L23.9034 16.6458L29.1183 16.6458L27.0323 21.8477L23.9034 21.8477L23.9034 33.2917L30.1613 33.2917C32.4623 33.2917 34.3332 31.4255 34.3332 29.1302L34.3332 4.16146C34.3332 1.86697 32.4623 -1.3771e-06 30.1613 -1.27651e-06Z" fill="#00AA4E"/>
</svg>
