<svg width="34" height="34" viewBox="0 0 34 34" fill="none" xmlns="http://www.w3.org/2000/svg">
<path d="M23.0821 -1.00298e-06L10.5665 -4.55898e-07C4.80728 -2.04157e-07 0.136719 4.65889 0.136719 10.4037L0.13672 22.888C0.13672 28.6328 4.80728 33.2917 10.5665 33.2917L23.0821 33.2917C28.8413 33.2917 33.5119 28.6328 33.5119 22.888L33.5119 10.4037C33.5119 4.65888 28.8413 -1.25472e-06 23.0821 -1.00298e-06ZM30.3829 22.888C30.3829 26.904 27.1082 30.1706 23.0821 30.1706L10.5665 30.1706C6.54041 30.1706 3.26564 26.904 3.26564 22.888L3.26564 10.4037C3.26564 6.38768 6.54123 3.1211 10.5665 3.1211L23.0821 3.12109C27.1082 3.12109 30.3829 6.38849 30.3829 10.4037L30.3829 22.888Z" fill="#00AA4E"/>
<path d="M16.8242 8.32254C12.2163 8.32254 8.48037 12.0492 8.48037 16.6455C8.48037 21.2418 12.2163 24.9684 16.8242 24.9684C21.432 24.9684 25.1679 21.2418 25.1679 16.6455C25.1679 12.0492 21.432 8.32254 16.8242 8.32254ZM16.8242 21.8473C13.9495 21.8473 11.6093 19.513 11.6093 16.6455C11.6093 13.7755 13.9495 11.4436 16.8242 11.4436C19.6989 11.4436 22.039 13.7755 22.039 16.6455C22.039 19.513 19.6989 21.8473 16.8242 21.8473Z" fill="#00AA4E"/>
<path d="M26.9053 7.6987C26.9053 8.31154 26.4074 8.80734 25.7939 8.80734C25.1803 8.80734 24.6825 8.31073 24.6825 7.6987C24.6825 7.08667 25.1803 6.59006 25.7939 6.59006C26.4074 6.58925 26.9053 7.08586 26.9053 7.6987Z" fill="#00AA4E"/>
</svg>
