<svg width="50" height="34" viewBox="0 0 50 34" fill="none" xmlns="http://www.w3.org/2000/svg">
<path d="M47.6171 3.2086C46.2941 0.87131 44.8578 0.442156 41.9342 0.279007C39.0141 0.081573 31.6698 -1.3445e-06 25.3068 -1.06637e-06C18.9319 -7.87712e-07 11.584 0.0815742 8.66629 0.275462C5.74858 0.442158 4.30997 0.868947 2.97497 3.2086C1.61257 5.54235 0.911133 9.56079 0.911134 16.6365L0.911134 16.6613C0.911134 23.7063 1.61258 27.7567 2.97497 30.0656C4.30997 32.4017 5.7462 32.8261 8.66391 33.0224C11.584 33.1914 18.9319 33.2919 25.3068 33.2919C31.6698 33.2919 39.0141 33.1914 41.9377 33.0259C44.8614 32.8297 46.2976 32.4052 47.6207 30.0691C48.995 27.7602 49.6905 23.7098 49.6905 16.6649L49.6905 16.6412C49.6905 9.56078 48.995 5.54234 47.6171 3.2086ZM19.2034 25.7256L19.2034 7.56634L34.447 16.646L19.2034 25.7256Z" fill="#00AA4E"/>
</svg>
